<svg width="86" height="22" viewBox="0 0 86 22" fill="none" xmlns="http://www.w3.org/2000/svg">
<path d="M3.17436 7.21714H3.3963C4.21009 5.98906 5.46036 5.37502 7.14712 5.37502C8.04969 5.37502 8.87827 5.61176 9.63287 6.08524C10.4023 6.55872 11.0163 7.23194 11.475 8.10491C11.9337 8.97788 12.163 9.99142 12.163 11.1455C12.163 12.2996 11.9337 13.3206 11.475 14.2083C11.0163 15.0813 10.4023 15.7545 9.63287 16.228C8.87827 16.7015 8.04969 16.9382 7.14712 16.9382C5.46036 16.9382 4.19529 16.2946 3.35191 15.0073H3.12997V16.6275H0.755191V1.09154H3.17436V7.21714ZM6.43691 7.46128C5.47516 7.46128 4.68357 7.79419 4.06213 8.46002C3.45549 9.12585 3.15217 10.021 3.15217 11.1455C3.15217 12.27 3.45549 13.1652 4.06213 13.831C4.68357 14.4968 5.47516 14.8298 6.43691 14.8298C7.41345 14.8298 8.20505 14.5042 8.81169 13.8532C9.41833 13.1874 9.72165 12.2848 9.72165 11.1455C9.72165 10.0062 9.41833 9.11105 8.81169 8.46002C8.20505 7.79419 7.41345 7.46128 6.43691 7.46128ZM16.6556 16.6275H14.2364V5.68574H16.6556V16.6275ZM13.6372 2.4232C13.6372 1.90533 13.8073 1.48364 14.1477 1.15813C14.488 0.832611 14.9171 0.669853 15.4349 0.669853C15.9528 0.669853 16.3819 0.832611 16.7222 1.15813C17.0625 1.48364 17.2327 1.90533 17.2327 2.4232C17.2327 2.92626 17.0625 3.34056 16.7222 3.66607C16.3819 3.99159 15.9528 4.15434 15.4349 4.15434C14.9171 4.15434 14.488 3.99159 14.1477 3.66607C13.8073 3.34056 13.6372 2.92626 13.6372 2.4232ZM21.1255 5.68574V2.11248H23.5668V5.68574H26.7628V7.66103H23.5668V13.9642C23.5668 14.4081 23.774 14.63 24.1883 14.63H26.4299V16.6275H23.3449C22.6791 16.6275 22.139 16.4203 21.7247 16.006C21.3252 15.5918 21.1255 15.0443 21.1255 14.3637V7.66103H18.1737V5.68574H21.1255ZM39.3266 5.68574V16.006C39.3266 17.7224 38.8088 19.0467 37.773 19.9788C36.7521 20.911 35.3687 21.377 33.6227 21.377C32.0987 21.377 30.8706 21.0293 29.9385 20.3339C29.0063 19.6533 28.3775 18.8321 28.052 17.8704L30.227 16.9382C30.449 17.6484 30.8337 18.2181 31.3811 18.6472C31.9286 19.091 32.661 19.313 33.5783 19.313C34.5993 19.313 35.4057 19.0245 35.9975 18.4474C36.5894 17.8852 36.8853 17.0492 36.8853 15.9395V14.7632H36.6633C35.8348 16.006 34.5845 16.6275 32.9125 16.6275C32.0099 16.6275 31.174 16.3981 30.4046 15.9395C29.65 15.466 29.0433 14.8002 28.5846 13.942C28.126 13.0838 27.8966 12.0999 27.8966 10.9902C27.8966 9.88045 28.126 8.9039 28.5846 8.06052C29.0433 7.20235 29.65 6.54392 30.4046 6.08524C31.174 5.61176 32.0099 5.37502 32.9125 5.37502C34.5993 5.37502 35.8643 6.01126 36.7077 7.28373H36.9297V5.68574H39.3266ZM33.6227 14.519C34.5993 14.519 35.3909 14.2009 35.9975 13.5647C36.6189 12.9137 36.9297 12.0555 36.9297 10.9902C36.9297 9.92484 36.6189 9.07406 35.9975 8.43783C35.3761 7.7868 34.5845 7.46128 33.6227 7.46128C32.661 7.46128 31.8694 7.7794 31.2479 8.41563C30.6413 9.05187 30.338 9.91004 30.338 10.9902C30.338 12.0703 30.6413 12.9285 31.2479 13.5647C31.8694 14.2009 32.661 14.519 33.6227 14.519ZM50.1224 14.9185H49.9004C49.279 16.1762 48.0953 16.805 46.3494 16.805C45.5208 16.805 44.781 16.6201 44.1299 16.2502C43.4789 15.8655 42.9685 15.3328 42.5985 14.6522C42.2434 13.9568 42.0659 13.1578 42.0659 12.2552V5.68574H44.5072V12.1221C44.5072 13.0098 44.7292 13.6831 45.1731 14.1417C45.617 14.5856 46.2532 14.8076 47.0818 14.8076C47.9991 14.8076 48.7241 14.5042 49.2568 13.8976C49.8043 13.2762 50.078 12.4106 50.078 11.3009V5.68574H52.4972V16.6275H50.1224V14.9185ZM55.0439 8.5266C55.3399 7.59445 55.8873 6.83244 56.6863 6.2406C57.4853 5.64875 58.5432 5.35283 59.8601 5.35283C61.2953 5.35283 62.4198 5.72273 63.2336 6.46254C64.0622 7.18755 64.4765 8.21588 64.4765 9.54754V16.6275H62.1461V15.2514H61.8576C61.2805 16.376 60.2226 16.9382 58.6838 16.9382C57.5149 16.9382 56.5532 16.6275 55.7986 16.006C55.0439 15.3846 54.6666 14.5338 54.6666 13.4537C54.6666 12.3588 55.0513 11.5154 55.8207 10.9236C56.5901 10.3317 57.6037 10.0358 58.8614 10.0358H62.1017V9.36998C62.1017 8.76334 61.9094 8.27507 61.5247 7.90516C61.14 7.52046 60.5777 7.32811 59.8379 7.32811C59.1129 7.32811 58.5358 7.50567 58.1068 7.86078C57.6925 8.20109 57.4261 8.67456 57.3078 9.2812L55.0439 8.5266ZM57.108 13.3871C57.108 13.8606 57.2856 14.2379 57.6407 14.519C57.9958 14.8002 58.4988 14.9407 59.1499 14.9407C60.0228 14.9407 60.7331 14.6892 61.2805 14.1861C61.828 13.6683 62.1017 12.9802 62.1017 12.1221V11.9223H59.0167C58.4249 11.9223 57.9588 12.0555 57.6185 12.3218C57.2782 12.5733 57.108 12.9285 57.108 13.3871ZM69.6744 7.19495C69.8964 6.64749 70.2293 6.2554 70.6732 6.01866C71.1171 5.76712 71.7015 5.64136 72.4265 5.64136H73.6916V7.70542H72.0048C71.2354 7.70542 70.6214 7.91256 70.1627 8.32685C69.7188 8.74115 69.4969 9.34779 69.4969 10.1468V16.6275H67.0777V5.68574H69.4525V7.19495H69.6744ZM83.2687 16.6275V15.0073H83.0468C82.2034 16.2946 80.9383 16.9382 79.2516 16.9382C78.349 16.9382 77.513 16.7015 76.7436 16.228C75.989 15.7545 75.3824 15.0813 74.9237 14.2083C74.465 13.3206 74.2357 12.2996 74.2357 11.1455C74.2357 9.99142 74.465 8.97788 74.9237 8.10491C75.3824 7.23194 75.989 6.55872 76.7436 6.08524C77.513 5.61176 78.349 5.37502 79.2516 5.37502C80.9383 5.37502 82.1886 5.98906 83.0024 7.21714H83.2243V1.09154H85.6657V16.6275H83.2687ZM79.9618 7.46128C78.9852 7.46128 78.1937 7.79419 77.587 8.46002C76.9804 9.11105 76.6771 10.0062 76.6771 11.1455C76.6771 12.2848 76.9804 13.1874 77.587 13.8532C78.1937 14.5042 78.9852 14.8298 79.9618 14.8298C80.9383 14.8298 81.7299 14.5042 82.3366 13.8532C82.958 13.1874 83.2687 12.2848 83.2687 11.1455C83.2687 10.0062 82.958 9.11105 82.3366 8.46002C81.7299 7.79419 80.9383 7.46128 79.9618 7.46128Z" fill="white"/>
</svg>
